# xmcd
#
# Track frame offsets:
#	150
#	12916
#	24854
#	40037
#	59515
#	73133
#	90689
#	107246
#	121313
#	136865
#	148645
#	163214
#	180670
#
# Disc length: 2637 seconds
#
# Revision: 0
# Processed by: cddbd v1.5.2PL0 Copyright (c) Steve Scherf et al.
# Submitted via: EasyCDDAExtractor 10.0.5.1
#
DISCID=b10a4b0d
DTITLE=Gökalp Baykal - Yağmuru Beklerken CD1 (Akustik)
DYEAR=2007
DGENRE=Blues
TTITLE0=Yolun Sonunda
TTITLE1=Sürgünden Gelen Gemi
TTITLE2=Yolda Bir Yerde
TTITLE3=Söz Etme
TTITLE4=Kalem Kırar
TTITLE5=Sessiz Oyun
TTITLE6=Senin Kedin Olmak
TTITLE7=Tas Kalmadan (akustik)
TTITLE8=Hiç Kimseyi (akustik)
TTITLE9=Üç Dünya
TTITLE10=Dünya Henüz Dünyayken
TTITLE11=Senden Çok Uzakta
TTITLE12=Kimsin Sen
EXTD=
EXTT0=
EXTT1=
EXTT2=
EXTT3=
EXTT4=
EXTT5=
EXTT6=
EXTT7=
EXTT8=
EXTT9=
EXTT10=
EXTT11=
EXTT12=
PLAYORDER=
